# xmcd
#
# Track frame offsets: 
#        150
#        16648
#        32613
#        53762
#        75613
#        90604
#        110552
#        127313
#        142607
#        159249
#        177288
#        196258
#        214791
#        233764
#        249170
#        266310
#
# Disc length: 3780 seconds
#
# Revision: 0
# Processed by: cddbd v1.5.2PL0 Copyright (c) Steve Scherf et al.
# Submitted via: ExactAudioCopyFreeDBPlugin 1.0
#
DISCID=c00ec210
DTITLE=Various Artist - American Heartland
DYEAR=2013
DGENRE=Country
TTITLE0=Kelly Clarkson - Mr. Know It All
TTITLE1=Shania Twain - You're The One
TTITLE2=Tim McGraw and Gweneth Paltrow - Me And Tennessee
TTITLE3=Sheryl Crow - Home
TTITLE4=Carrie Underwood - Before He Cheats
TTITLE5=LeAnn Rimes - How Do I Live
TTITLE6=The Band Perry - If I Die Young
TTITLE7=The Civil Wars - Barton Hollow
TTITLE8=Lissie - When I'm Alone
TTITLE9=Sarah McLachlan - Angel
TTITLE10=Brad Paisley feat. Alabama - Old Alabama
TTITLE11=Sugarland - Stuck Like Glue
TTITLE12=Martina McBride - Concrete Angel
TTITLE13=Kellie Pickler - Didn't You Know How Much I Loved You
TTITLE14=Hunter Hayes - Wanted
TTITLE15=Wonderland - Need You Now
EXTD=
EXTT0=
EXTT1=
EXTT2=
EXTT3=
EXTT4=
EXTT5=
EXTT6=
EXTT7=
EXTT8=
EXTT9=
EXTT10=
EXTT11=
EXTT12=
EXTT13=
EXTT14=
EXTT15=
PLAYORDER=
